GIL01_slow3_ik
nRows=3
nColumns=375

# SIMM Motion File Header:
name GIL01_slow3_ik
datacolumns 375
datarows 3
otherdata 1
range 0.59167000 0.60833000
endheader
time	pelvis_tx	pelvis_ty	pelvis_tz	pelvis_tilt	pelvis_list	pelvis_rotation	hip_flexion_r	hip_adduction_r	hip_rotation_r	knee_angle_r	ankle_angle_r	hip_flexion_l	hip_adduction_l	hip_rotation_l	knee_angle_l	ankle_angle_l	lumbar_extension	lumbar_bending	lumbar_rotation	subtalar_angle_r	mtp_angle_r	subtalar_angle_l	mtp_angle_l	asis_r_px	asis_r_py	asis_r_pz	asis_l_px	asis_l_py	asis_l_pz	midasis_px	midasis_py	midasis_pz	psis_r_px	psis_r_py	psis_r_pz	psis_l_px	psis_l_py	psis_l_pz	hip_r_px	hip_r_py	hip_r_pz	hip_l_px	hip_l_py	hip_l_pz	midhip_px	midhip_py	midhip_pz	epicondLat_r_px	epicondLat_r_py	epicondLat_r_pz	epicondMed_r_px	epicondMed_r_py	epicondMed_r_pz	thighwand_r_px	thighwand_r_py	thighwand_r_pz	upperleg1_r_px	upperleg1_r_py	upperleg1_r_pz	upperleg2_r_px	upperleg2_r_py	upperleg2_r_pz	malleolusLat_r_px	malleolusLat_r_py	malleolusLat_r_pz	malleolusMedv_r_px	malleolusMedv_r_py	malleolusMedv_r_pz	shankwand_r_px	shankwand_r_py	shankwand_r_pz	lowerleg1_r_px	lowerleg1_r_py	lowerleg1_r_pz	knee_r_px	knee_r_py	knee_r_pz	ankle_r_px	ankle_r_py	ankle_r_pz	toe_r_px	toe_r_py	toe_r_pz	epicondLat_l_px	epicondLat_l_py	epicondLat_l_pz	epicondMed_l_px	epicondMed_l_py	epicondMed_l_pz	thighwand_l_px	thighwand_l_py	thighwand_l_pz	upperleg1_l_px	upperleg1_l_py	upperleg1_l_pz	upperleg2_l_px	upperleg2_l_py	upperleg2_l_pz	malleolusLat_l_px	malleolusLat_l_py	malleolusLat_l_pz	malleolusMedv_l_px	malleolusMedv_l_py	malleolusMedv_l_pz	shankwand_l_px	shankwand_l_py	shankwand_l_pz	lowerleg1_l_px	lowerleg1_l_py	lowerleg1_l_pz	knee_l_px	knee_l_py	knee_l_pz	ankle_l_px	ankle_l_py	ankle_l_pz	toe_l_px	toe_l_py	toe_l_pz	subclavicle_r_px	subclavicle_r_py	subclavicle_r_pz	subclavicle_l_px	subclavicle_l_py	subclavicle_l_pz	neck_px	neck_py	neck_pz	sternalnotch_px	sternalnotch_py	sternalnotch_pz	xyphoidprocess_px	xyphoidprocess_py	xyphoidprocess_pz	midhip_tx	midhip_ty	midhip_tz	hip_r_tx	hip_r_ty	hip_r_tz	hip_l_tx	hip_l_ty	hip_l_tz	knee_r_tx	knee_r_ty	knee_r_tz	knee_l_tx	knee_l_ty	knee_l_tz	ankle_r_tx	ankle_r_ty	ankle_r_tz	ankle_l_tx	ankle_l_ty	ankle_l_tz	midasis_tx	midasis_ty	midasis_tz	asis_r_tx	asis_r_ty	asis_r_tz	asis_l_tx	asis_l_ty	asis_l_tz	psis_r_tx	psis_r_ty	psis_r_tz	psis_l_tx	psis_l_ty	psis_l_tz	epicondLat_r_tx	epicondLat_r_ty	epicondLat_r_tz	epicondLat_l_tx	epicondLat_l_ty	epicondLat_l_tz	epicondMed_r_tx	epicondMed_r_ty	epicondMed_r_tz	epicondMed_l_tx	epicondMed_l_ty	epicondMed_l_tz	malleolusLat_r_tx	malleolusLat_r_ty	malleolusLat_r_tz	malleolusLat_l_tx	malleolusLat_l_ty	malleolusLat_l_tz	malleolusMedv_r_tx	malleolusMedv_r_ty	malleolusMedv_r_tz	malleolusMedv_l_tx	malleolusMedv_l_ty	malleolusMedv_l_tz	neck_tx	neck_ty	neck_tz	subclavicle_r_tx	subclavicle_r_ty	subclavicle_r_tz	subclavicle_l_tx	subclavicle_l_ty	subclavicle_l_tz	sternalnotch_tx	sternalnotch_ty	sternalnotch_tz	xyphoidprocess_tx	xyphoidprocess_ty	xyphoidprocess_tz	thighwand_r_tx	thighwand_r_ty	thighwand_r_tz	thighwand_l_tx	thighwand_l_ty	thighwand_l_tz	upperleg1_r_tx	upperleg1_r_ty	upperleg1_r_tz	upperleg1_l_tx	upperleg1_l_ty	upperleg1_l_tz	upperleg2_r_tx	upperleg2_r_ty	upperleg2_r_tz	upperleg2_l_tx	upperleg2_l_ty	upperleg2_l_tz	shankwand_r_tx	shankwand_r_ty	shankwand_r_tz	shankwand_l_tx	shankwand_l_ty	shankwand_l_tz	lowerleg1_r_tx	lowerleg1_r_ty	lowerleg1_r_tz	lowerleg1_l_tx	lowerleg1_l_ty	lowerleg1_l_tz	toe_r_tx	toe_r_ty	toe_r_tz	toe_l_tx	toe_l_ty	toe_l_tz	ground_force_vx	ground_force_vy	ground_force_vz	ground_force_px	ground_force_py	ground_force_pz	ground_force_vx	ground_force_vy	ground_force_vz	ground_force_px	ground_force_py	ground_force_pz	ground_torque_x	ground_torque_y	ground_torque_z	ground_torque_x	ground_torque_y	ground_torque_z	ground_marker_px	ground_marker_py	ground_marker_pz	ground_marker_px	ground_marker_py	ground_marker_pz	ground_marker_px	ground_marker_py	ground_marker_pz	ground_marker_px	ground_marker_py	ground_marker_pz	ground_marker_px	ground_marker_py	ground_marker_pz	ground_marker_px	ground_marker_py	ground_marker_pz	ground_marker_px	ground_marker_py	ground_marker_pz	ground_marker_px	ground_marker_py	ground_marker_pz	ground_marker_px	ground_marker_py	ground_marker_pz	ground_marker_px	ground_marker_py	ground_marker_pz	ground_marker_px	ground_marker_py	ground_marker_pz	ground_marker_px	ground_marker_py	ground_marker_pz	ground_marker_px	ground_marker_py	ground_marker_pz	ground_marker_px	ground_marker_py	ground_marker_pz	ground_marker_px	ground_marker_py	ground_marker_pz	ground_marker_px	ground_marker_py	ground_marker_pz	ground_marker_px	ground_marker_py	ground_marker_pz	ground_marker_px	ground_marker_py	ground_marker_pz	ground_marker_px	ground_marker_py	ground_marker_pz	ground_marker_px	ground_marker_py	ground_marker_pz	ground_marker_px	ground_marker_py	ground_marker_pz	ground_marker_px	ground_marker_py	ground_marker_pz	ground_marker_px	ground_marker_py	ground_marker_pz	ground_marker_px	ground_marker_py	ground_marker_pz	ground_marker_px	ground_marker_py	ground_marker_pz	ground_marker_px	ground_marker_py	ground_marker_pz	ground_marker_px	ground_marker_py	ground_marker_pz	ground_marker_px	ground_marker_py	ground_marker_pz	ground_marker_px	ground_marker_py	ground_marker_pz	ground_marker_px	ground_marker_py	ground_marker_pz	ground_marker_px	ground_marker_py	ground_marker_pz	ground_marker_px	ground_marker_py	ground_marker_pz	ground_marker_px	ground_marker_py	ground_marker_pz	ground_marker_px	ground_marker_py	ground_marker_pz	ground_marker_px	ground_marker_py	ground_marker_pz	ground_marker_px	ground_marker_py	ground_marker_pz	ground_marker_px	ground_marker_py	ground_marker_pz
      0.59167000	     -0.75491789	      0.80049795	      0.22141316	     -2.14102933	     -0.76592866	      2.26848521	     27.79841058	     -3.89742902	     -9.96334875	    -17.07627387	      1.15705967	     -8.67560053	      4.38085375	    -10.22809510	     10.00000028	      3.78411662	      2.75506220	     -2.90671232	     -4.74669980	      0.00000000	      0.00000000	      0.00000000	      0.00000000	     -0.73119793	      0.80227560	      0.32361951	     -0.72199001	      0.79483445	      0.11439117	     -0.74347460	      0.80006407	      0.22095957	     -0.88234372	      0.84846116	      0.24376322	     -0.88378408	      0.84603654	      0.18868891	     -0.81199002	      0.74943305	      0.29272108	     -0.81746564	      0.74781047	      0.15613314	     -0.81472783	      0.74862176	      0.22442711	     -0.70117979	      0.41761540	      0.36934203	     -0.68119578	      0.42254898	      0.26412148	     -0.65474410	      0.56910836	      0.42675049	     -0.73668933	      0.59534820	      0.38115097	     -0.70569692	      0.51349375	      0.36998489	     -0.62581192	      0.08940343	      0.36595463	     -0.60453094	      0.09312593	      0.30975043	     -0.68360369	      0.19278454	      0.43230908	     -0.65631074	      0.16079808	      0.36113397	     -0.66726202	      0.44686403	      0.31313604	     -0.61337913	      0.10159016	      0.32007512	     -0.51421030	      0.07683632	      0.37418016	     -0.92394814	      0.42369091	      0.14302833	     -0.92454868	      0.38632350	      0.27836147	     -0.72997739	      0.49643496	      0.12998811	     -0.78608489	      0.57301680	      0.10977268	     -0.85816952	      0.46762096	      0.17097505	     -0.91202090	      0.06463462	      0.16691207	     -0.88405571	      0.06439842	      0.21540172	     -0.92924550	      0.18763085	      0.09094996	     -0.91968803	      0.14938080	      0.16520244	     -0.88313742	      0.42166372	      0.18897263	     -0.88841394	      0.07274964	      0.20888979	     -0.80028306	      0.03895105	      0.14354368	     -0.79199592	      1.16685017	      0.25137774	     -0.78837926	      1.17263196	      0.17647309	     -0.89955664	      1.20695081	      0.19769908	     -0.80397123	      1.16643876	      0.21160642	     -0.76219690	      1.09014641	      0.21012521	     -0.80976200	      0.74604300	      0.22203100	     -0.82074900	      0.74534400	      0.29310900	     -0.82653300	      0.74464700	      0.16292400	     -0.66838500	      0.43019600	      0.31090000	     -0.88833600	      0.43416600	      0.19302500	     -0.61689200	      0.09362700	      0.32505200	     -0.87810600	      0.06797800	      0.20180500	     -0.75286500	      0.81334100	      0.22450600	     -0.74835000	      0.81388500	      0.32612300	     -0.75738000	      0.81279700	      0.12288800	     -0.90523100	      0.85341200	      0.26527200	     -0.91179600	      0.85351300	      0.21052500	     -0.67611000	      0.42953500	      0.36535100	     -0.90102900	      0.43156100	      0.14008800	     -0.66081300	      0.42707300	      0.26946400	     -0.88302900	      0.41607800	      0.23397800	     -0.63155600	      0.09283400	      0.35955700	     -0.89683800	      0.06669000	      0.16992200	     -0.60685600	      0.09812500	      0.30258000	     -0.87250000	      0.07802600	      0.23023600	     -0.89825200	      1.21919600	      0.19748200	     -0.79091500	      1.16388200	      0.25027500	     -0.78612500	      1.16649300	      0.17467700	     -0.80305900	      1.16348400	      0.21009800	     -0.77204300	      1.08227600	      0.21166900	     -0.64210700	      0.58086800	      0.42629600	     -0.71966500	      0.52878900	      0.14072100	     -0.72937600	      0.59451200	      0.38512300	     -0.78150600	      0.59963400	      0.11939100	     -0.69033000	      0.51904800	      0.37436200	     -0.81013000	      0.51648400	      0.12961100	     -0.67644100	      0.20087900	      0.42796900	     -0.91023500	      0.19461800	      0.09013600	     -0.65025600	      0.16892900	      0.35768500	     -0.90502100	      0.15704800	      0.16502200	     -0.52776100	      0.08398100	      0.37097300	     -0.77996300	      0.04716300	      0.18376600	      0.00000000	      0.00000000	      0.00000000	     -0.44247101	      0.00000000	      0.23781354	     14.87322943	    393.60637903	      5.81439949	     -0.85541418	      0.00000000	      0.19769968	      0.00000000	      0.00000000	      0.00000000	      0.00000000	     -0.19460736	      0.00000000	     -0.80976248	      0.74604321	      0.22203080	     -0.82074881	      0.74534428	      0.29310933	     -0.82653338	      0.74464685	      0.16292414	     -0.66838521	      0.43019557	      0.31090003	     -0.88833594	      0.43416631	      0.19302471	     -0.61689174	      0.09362686	      0.32505187	     -0.87810647	      0.06797750	      0.20180459	     -0.75286508	      0.81334102	      0.22450569	     -0.74834979	      0.81388545	      0.32612339	     -0.75738031	      0.81279659	      0.12288801	     -0.90523058	      0.85341221	      0.26527217	     -0.91179568	      0.85351306	      0.21052533	     -0.67611009	      0.42953467	      0.36535084	     -0.90102935	      0.43156084	      0.14008759	     -0.66081327	      0.42707336	      0.26946402	     -0.88302922	      0.41607836	      0.23397759	     -0.63155586	      0.09283415	      0.35955673	     -0.89683753	      0.06668983	      0.16992216	     -0.60685647	      0.09812490	      0.30257991	     -0.87250024	      0.07802619	      0.23023573	     -0.89825189	      1.21919572	      0.19748154	     -0.79091477	      1.16388178	      0.25027499	     -0.78612548	      1.16649282	      0.17467740	     -0.80305868	      1.16348350	      0.21009767	     -0.77204281	      1.08227623	      0.21166916	     -0.64210659	      0.58086795	      0.42629641	     -0.71966547	      0.52878898	      0.14072086	     -0.72937566	      0.59451163	      0.38512298	     -0.78150630	      0.59963423	      0.11939065	     -0.69033021	      0.51904774	      0.37436178	     -0.81012994	      0.51648355	      0.12961054	     -0.67644078	      0.20087905	      0.42796859	     -0.91023535	      0.19461831	      0.09013628	     -0.65025645	      0.16892919	      0.35768488	     -0.90502107	      0.15704775	      0.16502205	     -0.52776092	      0.08398062	      0.37097302	     -0.77996337	      0.04716279	      0.18376647
      0.60000000	     -0.75057423	      0.80009804	      0.22125019	     -2.20755285	     -0.85555579	      2.32010871	     27.95100132	     -3.55623940	     -9.50363161	    -15.77554837	      0.57263002	     -8.90244361	      4.29891881	    -10.19538095	     10.00000028	      3.94327631	      2.83625188	     -2.83301131	     -4.96506090	      0.00000000	      0.00000000	      0.00000000	      0.00000000	     -0.72675404	      0.80200404	      0.32343092	     -0.71775582	      0.79423230	      0.11420547	     -0.73913190	      0.79965002	      0.22078629	     -0.87792218	      0.84824498	      0.24364902	     -0.87941828	      0.84573788	      0.18857989	     -0.80763770	      0.74920926	      0.29269082	     -0.81324641	      0.74738435	      0.15611083	     -0.81044206	      0.74829680	      0.22440082	     -0.69575464	      0.41744266	      0.36796189	     -0.67691001	      0.42243851	      0.26253425	     -0.64881829	      0.56894562	      0.42493518	     -0.73127040	      0.59514286	      0.38023372	     -0.70033773	      0.51331722	      0.36869697	     -0.61241663	      0.09049030	      0.36467256	     -0.59182935	      0.09454562	      0.30823350	     -0.67188511	      0.19269023	      0.43137436	     -0.64461726	      0.16114327	      0.35999378	     -0.66273013	      0.44673950	      0.31137100	     -0.60076123	      0.10283149	      0.31863055	     -0.50059058	      0.07945096	      0.37148657	     -0.92139071	      0.42381000	      0.14314179	     -0.92217209	      0.38649934	      0.27848966	     -0.72705051	      0.49555322	      0.13005789	     -0.78276616	      0.57241385	      0.10981670	     -0.85538545	      0.46741311	      0.17106611	     -0.91130305	      0.06470667	      0.16716584	     -0.88333557	      0.06434612	      0.21565341	     -0.92790272	      0.18775976	      0.09115669	     -0.91853562	      0.14949038	      0.16542347	     -0.88058727	      0.42159159	      0.18908372	     -0.88765143	      0.07271702	      0.20913853	     -0.79965322	      0.03872539	      0.14371380	     -0.78777228	      1.16656949	      0.25126371	     -0.78394742	      1.17234258	      0.17636873	     -0.89519869	      1.20661686	      0.19727719	     -0.79963551	      1.16614753	      0.21145892	     -0.75782464	      1.08987281	      0.21010575	     -0.80566400	      0.74578200	      0.22181400	     -0.81631200	      0.74524100	      0.29315000	     -0.82226500	      0.74439100	      0.16297400	     -0.66343300	      0.43010600	      0.30897700	     -0.88554500	      0.43417400	      0.19313000	     -0.60392800	      0.09444400	      0.32376200	     -0.87771700	      0.06805900	      0.20207500	     -0.74844500	      0.81308300	      0.22437600	     -0.74379900	      0.81374600	      0.32597200	     -0.75309200	      0.81242000	      0.12278100	     -0.90075900	      0.85336300	      0.26535300	     -0.90751300	      0.85346000	      0.21061100	     -0.67054900	      0.42939300	      0.36351000	     -0.89827300	      0.43162500	      0.14019800	     -0.65710200	      0.42692500	      0.26706600	     -0.88073800	      0.41639400	      0.23403900	     -0.61830600	      0.09342000	      0.35838200	     -0.89644000	      0.06688000	      0.17018400	     -0.59446000	      0.09912200	      0.30107300	     -0.87206900	      0.07789600	      0.23057000	     -0.89385400	      1.21897400	      0.19707200	     -0.78666900	      1.16366800	      0.25010200	     -0.78170900	      1.16622500	      0.17458800	     -0.79872300	      1.16324600	      0.20993400	     -0.76773800	      1.08202900	      0.21163100	     -0.63617000	      0.58053100	      0.42389700	     -0.71652500	      0.52812900	      0.14076500	     -0.72420400	      0.59427900	      0.38369100	     -0.77772600	      0.59924200	      0.11946200	     -0.68531300	      0.51882400	      0.37239200	     -0.80706300	      0.51613200	      0.12970000	     -0.66520400	      0.20071200	      0.42684000	     -0.90895600	      0.19476000	      0.09035500	     -0.63884500	      0.16919200	      0.35676400	     -0.90412400	      0.15710100	      0.16523500	     -0.51411900	      0.08604200	      0.36830300	     -0.77977600	      0.04688400	      0.18408200	      0.00000000	      0.00000000	      0.00000000	     -0.44125671	      0.00000000	      0.23838263	     15.88451452	    391.38493076	      6.08232986	     -0.85353284	      0.00000000	      0.19713640	      0.00000000	      0.00000000	      0.00000000	      0.00000000	     -0.21242657	      0.00000000	     -0.80566370	      0.74578160	      0.22181439	     -0.81631178	      0.74524117	      0.29315025	     -0.82226497	      0.74439132	      0.16297355	     -0.66343343	      0.43010575	      0.30897701	     -0.88554549	      0.43417418	      0.19312969	     -0.60392833	      0.09444439	      0.32376245	     -0.87771690	      0.06805931	      0.20207539	     -0.74844539	      0.81308305	      0.22437647	     -0.74379927	      0.81374627	      0.32597178	     -0.75309151	      0.81241977	      0.12278115	     -0.90075946	      0.85336339	      0.26535252	     -0.90751272	      0.85345978	      0.21061124	     -0.67054915	      0.42939255	      0.36351010	     -0.89827317	      0.43162504	      0.14019805	     -0.65710223	      0.42692462	      0.26706558	     -0.88073826	      0.41639397	      0.23403905	     -0.61830610	      0.09342048	      0.35838157	     -0.89644045	      0.06687972	      0.17018434	     -0.59446049	      0.09912232	      0.30107257	     -0.87206888	      0.07789560	      0.23057032	     -0.89385360	      1.21897423	      0.19707233	     -0.78666949	      1.16366756	      0.25010240	     -0.78170860	      1.16622496	      0.17458801	     -0.79872262	      1.16324580	      0.20993404	     -0.76773787	      1.08202922	      0.21163064	     -0.63616973	      0.58053088	      0.42389694	     -0.71652502	      0.52812904	      0.14076495	     -0.72420430	      0.59427905	      0.38369119	     -0.77772558	      0.59924221	      0.11946198	     -0.68531281	      0.51882392	      0.37239209	     -0.80706304	      0.51613188	      0.12970009	     -0.66520393	      0.20071244	      0.42683986	     -0.90895581	      0.19476016	      0.09035549	     -0.63884526	      0.16919233	      0.35676414	     -0.90412378	      0.15710077	      0.16523530	     -0.51411861	      0.08604158	      0.36830288	     -0.77977580	      0.04688395	      0.18408175
      0.60833000	     -0.74613061	      0.79968203	      0.22111385	     -2.28057819	     -0.94774282	      2.37085764	     28.07234679	     -3.21061449	     -9.02995618	    -14.49967892	      0.03813059	     -9.11919350	      4.20896247	    -10.17674758	     10.00000028	      4.09813314	      2.93072678	     -2.74658789	     -5.19925190	      0.00000000	      0.00000000	      0.00000000	      0.00000000	     -0.72221103	      0.80171799	      0.32326885	     -0.71342138	      0.79360567	      0.11404747	     -0.73468931	      0.79921854	      0.22063982	     -0.87339515	      0.84802827	      0.24355746	     -0.87494673	      0.84543651	      0.18849379	     -0.80319175	      0.74897926	      0.29268847	     -0.80893241	      0.74694682	      0.15611690	     -0.80606208	      0.74796304	      0.22440269	     -0.69044611	      0.41720107	      0.36660928	     -0.67276537	      0.42223481	      0.26098202	     -0.64290270	      0.56869058	      0.42311304	     -0.72584568	      0.59489274	      0.37933206	     -0.69503228	      0.51307481	      0.36742731	     -0.59951300	      0.09161229	      0.36324391	     -0.57963812	      0.09597309	      0.30657273	     -0.66050552	      0.19264489	      0.43034667	     -0.63332433	      0.16152074	      0.35874775	     -0.65830663	      0.44651435	      0.30963580	     -0.58863785	      0.10408641	      0.31704707	     -0.48750062	      0.08207537	      0.36863524	     -0.91872779	      0.42392452	      0.14325929	     -0.91966272	      0.38665259	      0.27861686	     -0.72402803	      0.49467310	      0.13010487	     -0.77935673	      0.57181154	      0.10985910	     -0.85249363	      0.46719776	      0.17115477	     -0.91046380	      0.06478054	      0.16737203	     -0.88248542	      0.06428974	      0.21585216	     -0.92645670	      0.18789738	      0.09133603	     -0.91726468	      0.14959957	      0.16561002	     -0.87792376	      0.42150983	      0.18919081	     -0.88676033	      0.07268088	      0.20933632	     -0.79890778	      0.03850108	      0.14381395	     -0.78348542	      1.16628160	      0.25124065	     -0.77943219	      1.17206105	      0.17635817	     -0.89076643	      1.20627291	      0.19692444	     -0.79522528	      1.16585538	      0.21139934	     -0.75336845	      1.08960376	      0.21017125	     -0.80138100	      0.74552400	      0.22174600	     -0.81181900	      0.74511700	      0.29319600	     -0.81793800	      0.74410200	      0.16302800	     -0.65863100	      0.42989200	      0.30709700	     -0.88264800	      0.43416900	      0.19321500	     -0.59143400	      0.09527400	      0.32221600	     -0.87726600	      0.06816600	      0.20233300	     -0.74396400	      0.81279200	      0.22424700	     -0.73918800	      0.81358300	      0.32583400	     -0.74873900	      0.81200000	      0.12266000	     -0.89620400	      0.85327800	      0.26546100	     -0.90306800	      0.85337500	      0.21071400	     -0.66512600	      0.42914500	      0.36170700	     -0.89541900	      0.43168000	      0.14029100	     -0.65332600	      0.42675500	      0.26478500	     -0.87718900	      0.41587000	      0.23432600	     -0.60553600	      0.09401100	      0.35694000	     -0.89595000	      0.06709600	      0.17041500	     -0.58255400	      0.10009600	      0.29935500	     -0.87180100	      0.07774200	      0.23100400	     -0.88943600	      1.21870700	      0.19670700	     -0.78226400	      1.16344200	      0.25001900	     -0.77726800	      1.16593600	      0.17457900	     -0.79429800	      1.16298400	      0.20988100	     -0.76330400	      1.08177300	      0.21166100	     -0.63029200	      0.58014800	      0.42150300	     -0.71326900	      0.52746900	      0.14076100	     -0.71891300	      0.59403400	      0.38234300	     -0.77481400	      0.59874200	      0.11942300	     -0.68022000	      0.51860300	      0.37052000	     -0.80387800	      0.51578000	      0.12976000	     -0.65437100	      0.20051200	      0.42552700	     -0.90748600	      0.19487800	      0.09055400	     -0.62806800	      0.16925200	      0.35520900	     -0.90306800	      0.15721400	      0.16543000	     -0.50097800	      0.08809800	      0.36540000	     -0.77957000	      0.04661900	      0.18440500	      0.00000000	      0.00000000	      0.00000000	     -0.44045154	      0.00000000	      0.23880582	     16.98750394	    389.31784868	      6.45727247	     -0.85160657	      0.00000000	      0.19656146	      0.00000000	      0.00000000	      0.00000000	      0.00000000	     -0.23044382	      0.00000000	     -0.80138111	      0.74552417	      0.22174588	     -0.81181914	      0.74511671	      0.29319584	     -0.81793809	      0.74410242	      0.16302803	     -0.65863127	      0.42989224	      0.30709699	     -0.88264787	      0.43416867	      0.19321482	     -0.59143376	      0.09527417	      0.32221562	     -0.87726599	      0.06816559	      0.20233288	     -0.74396372	      0.81279176	      0.22424705	     -0.73918831	      0.81358337	      0.32583442	     -0.74873918	      0.81200016	      0.12265968	     -0.89620352	      0.85327810	      0.26546118	     -0.90306842	      0.85337484	      0.21071416	     -0.66512561	      0.42914450	      0.36170709	     -0.89541864	      0.43168032	      0.14029066	     -0.65332568	      0.42675522	      0.26478466	     -0.87718922	      0.41587049	      0.23432630	     -0.60553581	      0.09401111	      0.35694003	     -0.89595002	      0.06709570	      0.17041481	     -0.58255410	      0.10009607	      0.29935515	     -0.87180060	      0.07774192	      0.23100366	     -0.88943553	      1.21870732	      0.19670673	     -0.78226405	      1.16344190	      0.25001934	     -0.77726758	      1.16593564	      0.17457873	     -0.79429787	      1.16298449	      0.20988141	     -0.76330358	      1.08177316	      0.21166122	     -0.63029200	      0.58014834	      0.42150265	     -0.71326882	      0.52746910	      0.14076109	     -0.71891344	      0.59403437	      0.38234258	     -0.77481359	      0.59874237	      0.11942309	     -0.68022001	      0.51860332	      0.37051994	     -0.80387819	      0.51577967	      0.12976000	     -0.65437120	      0.20051226	      0.42552736	     -0.90748590	      0.19487832	      0.09055417	     -0.62806845	      0.16925237	      0.35520929	     -0.90306842	      0.15721382	      0.16543020	     -0.50097847	      0.08809798	      0.36539996	     -0.77956992	      0.04661929	      0.18440549
